<?xml version="1.0" encoding="UTF-8" standalone="no"?>
<!DOCTYPE svg PUBLIC "-//W3C//DTD SVG 1.1//EN"
 "http://www.w3.org/Graphics/SVG/1.1/DTD/svg11.dtd">
<!-- Generated by graphviz version 14.1.4 (0)
 -->
<!-- Pages: 1 -->
<svg width="565pt" height="128pt"
 viewBox="0.00 0.00 565.00 128.00" xmlns="http://www.w3.org/2000/svg" xmlns:xlink="http://www.w3.org/1999/xlink">
<g id="graph0" class="graph" transform="scale(1 1) rotate(0) translate(4 124)">
<polygon fill="white" stroke="none" points="-4,4 -4,-124 560.5,-124 560.5,4 -4,4"/>
<!-- 0 -->
<g id="node1" class="node">
<title>0</title>
<polygon fill="none" stroke="black" points="2.25,-83.5 2.25,-119.5 99.25,-119.5 99.25,-83.5 2.25,-83.5"/>
<text xml:space="preserve" text-anchor="middle" x="50.75" y="-97.2" font-family="Times,serif" font-size="14.00">data: 2.000</text>
</g>
<!-- 50 -->
<g id="node5" class="node">
<title>50</title>
<ellipse fill="none" stroke="black" cx="164.5" cy="-73.5" rx="27" ry="18"/>
<text xml:space="preserve" text-anchor="middle" x="164.5" y="-68.83" font-family="Times,serif" font-size="14.00">*</text>
</g>
<!-- 0&#45;&gt;50 -->
<g id="edge3" class="edge">
<title>0&#45;&gt;50</title>
<path fill="none" stroke="black" d="M99.47,-89.54C108.98,-87.16 118.81,-84.7 127.83,-82.44"/>
<polygon fill="black" stroke="black" points="128.42,-85.9 137.27,-80.07 126.72,-79.11 128.42,-85.9"/>
</g>
<!-- 1 -->
<g id="node2" class="node">
<title>1</title>
<polygon fill="none" stroke="black" points="0,-28.5 0,-64.5 101.5,-64.5 101.5,-28.5 0,-28.5"/>
<text xml:space="preserve" text-anchor="middle" x="50.75" y="-42.2" font-family="Times,serif" font-size="14.00">data: &#45;3.000</text>
</g>
<!-- 1&#45;&gt;50 -->
<g id="edge4" class="edge">
<title>1&#45;&gt;50</title>
<path fill="none" stroke="black" d="M101.74,-58.58C110.43,-60.68 119.31,-62.82 127.53,-64.81"/>
<polygon fill="black" stroke="black" points="126.61,-68.19 137.15,-67.13 128.26,-61.38 126.61,-68.19"/>
</g>
<!-- 2 -->
<g id="node3" class="node">
<title>2</title>
<polygon fill="none" stroke="black" points="227.5,-0.5 227.5,-36.5 333.5,-36.5 333.5,-0.5 227.5,-0.5"/>
<text xml:space="preserve" text-anchor="middle" x="280.5" y="-14.2" font-family="Times,serif" font-size="14.00">data: 10.000</text>
</g>
<!-- 52 -->
<g id="node7" class="node">
<title>52</title>
<ellipse fill="none" stroke="black" cx="396.5" cy="-45.5" rx="27" ry="18"/>
<text xml:space="preserve" text-anchor="middle" x="396.5" y="-40.83" font-family="Times,serif" font-size="14.00">+</text>
</g>
<!-- 2&#45;&gt;52 -->
<g id="edge6" class="edge">
<title>2&#45;&gt;52</title>
<path fill="none" stroke="black" d="M333.83,-30.89C342.5,-32.95 351.32,-35.04 359.47,-36.97"/>
<polygon fill="black" stroke="black" points="358.46,-40.32 369,-39.22 360.07,-33.51 358.46,-40.32"/>
</g>
<!-- 3 -->
<g id="node4" class="node">
<title>3</title>
<polygon fill="none" stroke="black" points="229.75,-55.5 229.75,-91.5 331.25,-91.5 331.25,-55.5 229.75,-55.5"/>
<text xml:space="preserve" text-anchor="middle" x="280.5" y="-69.2" font-family="Times,serif" font-size="14.00">data: &#45;6.000</text>
</g>
<!-- 3&#45;&gt;52 -->
<g id="edge5" class="edge">
<title>3&#45;&gt;52</title>
<path fill="none" stroke="black" d="M331.5,-61.22C340.9,-58.91 350.56,-56.54 359.43,-54.36"/>
<polygon fill="black" stroke="black" points="360.21,-57.77 369.09,-51.99 358.54,-50.97 360.21,-57.77"/>
</g>
<!-- 50&#45;&gt;3 -->
<g id="edge1" class="edge">
<title>50&#45;&gt;3</title>
<path fill="none" stroke="black" d="M191.94,-73.5C199.89,-73.5 208.97,-73.5 218.19,-73.5"/>
<polygon fill="black" stroke="black" points="217.94,-77 227.94,-73.5 217.94,-70 217.94,-77"/>
</g>
<!-- 4 -->
<g id="node6" class="node">
<title>4</title>
<polygon fill="none" stroke="black" points="459.5,-27.5 459.5,-63.5 556.5,-63.5 556.5,-27.5 459.5,-27.5"/>
<text xml:space="preserve" text-anchor="middle" x="508" y="-41.2" font-family="Times,serif" font-size="14.00">data: 4.000</text>
</g>
<!-- 52&#45;&gt;4 -->
<g id="edge2" class="edge">
<title>52&#45;&gt;4</title>
<path fill="none" stroke="black" d="M423.73,-45.5C431.04,-45.5 439.28,-45.5 447.68,-45.5"/>
<polygon fill="black" stroke="black" points="447.62,-49 457.62,-45.5 447.62,-42 447.62,-49"/>
</g>
</g>
</svg>
