<?xml version="1.0" encoding="UTF-8" standalone="no"?>
<!DOCTYPE svg PUBLIC "-//W3C//DTD SVG 1.1//EN"
 "http://www.w3.org/Graphics/SVG/1.1/DTD/svg11.dtd">
<!-- Generated by graphviz version 14.1.4 (0)
 -->
<!-- Pages: 1 -->
<svg width="891pt" height="156pt"
 viewBox="0.00 0.00 891.00 156.00" xmlns="http://www.w3.org/2000/svg" xmlns:xlink="http://www.w3.org/1999/xlink">
<g id="graph0" class="graph" transform="scale(1 1) rotate(0) translate(4 152)">
<polygon fill="white" stroke="none" points="-4,4 -4,-152 887.25,-152 887.25,4 -4,4"/>
<!-- 139861644550248 -->
<g id="node1" class="node">
<title>139861644550248</title>
<polygon fill="none" stroke="black" points="0,-111.5 0,-147.5 126.5,-147.5 126.5,-111.5 0,-111.5"/>
<text xml:space="preserve" text-anchor="middle" x="12.5" y="-125.2" font-family="Times,serif" font-size="14.00">b</text>
<polyline fill="none" stroke="black" points="25,-112.25 25,-147.5"/>
<text xml:space="preserve" text-anchor="middle" x="75.75" y="-125.2" font-family="Times,serif" font-size="14.00">data: &#45;3.000</text>
</g>
<!-- 139861644550386 -->
<g id="node6" class="node">
<title>139861644550386</title>
<ellipse fill="none" stroke="black" cx="189.5" cy="-101.5" rx="27" ry="18"/>
<text xml:space="preserve" text-anchor="middle" x="189.5" y="-96.83" font-family="Times,serif" font-size="14.00">*</text>
</g>
<!-- 139861644550248&#45;&gt;139861644550386 -->
<g id="edge7" class="edge">
<title>139861644550248&#45;&gt;139861644550386</title>
<path fill="none" stroke="black" d="M126.74,-115.42C135.51,-113.44 144.27,-111.47 152.32,-109.65"/>
<polygon fill="black" stroke="black" points="153.07,-113.07 162.05,-107.46 151.53,-106.24 153.07,-113.07"/>
</g>
<!-- 139861644550296 -->
<g id="node2" class="node">
<title>139861644550296</title>
<polygon fill="none" stroke="black" points="252.5,-28.5 252.5,-64.5 382,-64.5 382,-28.5 252.5,-28.5"/>
<text xml:space="preserve" text-anchor="middle" x="264.25" y="-42.2" font-family="Times,serif" font-size="14.00">c</text>
<polyline fill="none" stroke="black" points="276,-29.25 276,-64.5"/>
<text xml:space="preserve" text-anchor="middle" x="329" y="-42.2" font-family="Times,serif" font-size="14.00">data: 10.000</text>
</g>
<!-- 139861644550435 -->
<g id="node4" class="node">
<title>139861644550435</title>
<ellipse fill="none" stroke="black" cx="445" cy="-73.5" rx="27" ry="18"/>
<text xml:space="preserve" text-anchor="middle" x="445" y="-68.83" font-family="Times,serif" font-size="14.00">+</text>
</g>
<!-- 139861644550296&#45;&gt;139861644550435 -->
<g id="edge8" class="edge">
<title>139861644550296&#45;&gt;139861644550435</title>
<path fill="none" stroke="black" d="M382.23,-60.24C390.95,-62.11 399.65,-63.98 407.64,-65.69"/>
<polygon fill="black" stroke="black" points="406.79,-69.09 417.3,-67.77 408.26,-62.25 406.79,-69.09"/>
</g>
<!-- 139861644550392 -->
<g id="node3" class="node">
<title>139861644550392</title>
<polygon fill="none" stroke="black" points="508.38,-55.5 508.38,-91.5 630.38,-91.5 630.38,-55.5 508.38,-55.5"/>
<text xml:space="preserve" text-anchor="middle" x="520.88" y="-69.2" font-family="Times,serif" font-size="14.00">d</text>
<polyline fill="none" stroke="black" points="533.38,-56.25 533.38,-91.5"/>
<text xml:space="preserve" text-anchor="middle" x="581.88" y="-69.2" font-family="Times,serif" font-size="14.00">data: 4.000</text>
</g>
<!-- 139861644550530 -->
<g id="node9" class="node">
<title>139861644550530</title>
<ellipse fill="none" stroke="black" cx="693.75" cy="-45.5" rx="27" ry="18"/>
<text xml:space="preserve" text-anchor="middle" x="693.75" y="-40.83" font-family="Times,serif" font-size="14.00">*</text>
</g>
<!-- 139861644550392&#45;&gt;139861644550530 -->
<g id="edge4" class="edge">
<title>139861644550392&#45;&gt;139861644550530</title>
<path fill="none" stroke="black" d="M630.85,-59.66C639.69,-57.64 648.55,-55.61 656.69,-53.75"/>
<polygon fill="black" stroke="black" points="657.2,-57.22 666.17,-51.58 655.64,-50.4 657.2,-57.22"/>
</g>
<!-- 139861644550435&#45;&gt;139861644550392 -->
<g id="edge1" class="edge">
<title>139861644550435&#45;&gt;139861644550392</title>
<path fill="none" stroke="black" d="M472.25,-73.5C479.58,-73.5 487.91,-73.5 496.53,-73.5"/>
<polygon fill="black" stroke="black" points="496.45,-77 506.45,-73.5 496.45,-70 496.45,-77"/>
</g>
<!-- 139861644550344 -->
<g id="node5" class="node">
<title>139861644550344</title>
<polygon fill="none" stroke="black" points="254.38,-83.5 254.38,-119.5 380.12,-119.5 380.12,-83.5 254.38,-83.5"/>
<text xml:space="preserve" text-anchor="middle" x="266.5" y="-97.2" font-family="Times,serif" font-size="14.00">e</text>
<polyline fill="none" stroke="black" points="278.62,-84.25 278.62,-119.5"/>
<text xml:space="preserve" text-anchor="middle" x="329.38" y="-97.2" font-family="Times,serif" font-size="14.00">data: &#45;6.000</text>
</g>
<!-- 139861644550344&#45;&gt;139861644550435 -->
<g id="edge5" class="edge">
<title>139861644550344&#45;&gt;139861644550435</title>
<path fill="none" stroke="black" d="M380.39,-87.66C389.75,-85.58 399.13,-83.49 407.7,-81.58"/>
<polygon fill="black" stroke="black" points="408.33,-85.03 417.34,-79.44 406.81,-78.19 408.33,-85.03"/>
</g>
<!-- 139861644550386&#45;&gt;139861644550344 -->
<g id="edge2" class="edge">
<title>139861644550386&#45;&gt;139861644550344</title>
<path fill="none" stroke="black" d="M216.86,-101.5C224.59,-101.5 233.45,-101.5 242.62,-101.5"/>
<polygon fill="black" stroke="black" points="242.4,-105 252.4,-101.5 242.4,-98 242.4,-105"/>
</g>
<!-- 139861644550200 -->
<g id="node7" class="node">
<title>139861644550200</title>
<polygon fill="none" stroke="black" points="2.62,-56.5 2.62,-92.5 123.88,-92.5 123.88,-56.5 2.62,-56.5"/>
<text xml:space="preserve" text-anchor="middle" x="14.75" y="-70.2" font-family="Times,serif" font-size="14.00">a</text>
<polyline fill="none" stroke="black" points="26.88,-57.25 26.88,-92.5"/>
<text xml:space="preserve" text-anchor="middle" x="75.38" y="-70.2" font-family="Times,serif" font-size="14.00">data: 2.000</text>
</g>
<!-- 139861644550200&#45;&gt;139861644550386 -->
<g id="edge6" class="edge">
<title>139861644550200&#45;&gt;139861644550386</title>
<path fill="none" stroke="black" d="M124.19,-87.53C133.86,-89.63 143.59,-91.74 152.46,-93.67"/>
<polygon fill="black" stroke="black" points="151.55,-97.05 162.06,-95.76 153.04,-90.21 151.55,-97.05"/>
</g>
<!-- 139861644550488 -->
<g id="node8" class="node">
<title>139861644550488</title>
<polygon fill="none" stroke="black" points="756.75,-27.5 756.75,-63.5 883.25,-63.5 883.25,-27.5 756.75,-27.5"/>
<text xml:space="preserve" text-anchor="middle" x="769.25" y="-41.2" font-family="Times,serif" font-size="14.00">L</text>
<polyline fill="none" stroke="black" points="781.75,-28.25 781.75,-63.5"/>
<text xml:space="preserve" text-anchor="middle" x="832.5" y="-41.2" font-family="Times,serif" font-size="14.00">data: &#45;8.000</text>
</g>
<!-- 139861644550530&#45;&gt;139861644550488 -->
<g id="edge3" class="edge">
<title>139861644550530&#45;&gt;139861644550488</title>
<path fill="none" stroke="black" d="M721.1,-45.5C728.33,-45.5 736.54,-45.5 745.06,-45.5"/>
<polygon fill="black" stroke="black" points="744.87,-49 754.87,-45.5 744.87,-42 744.87,-49"/>
</g>
<!-- 139861644550440 -->
<g id="node10" class="node">
<title>139861644550440</title>
<polygon fill="none" stroke="black" points="508,-0.5 508,-36.5 630.75,-36.5 630.75,-0.5 508,-0.5"/>
<text xml:space="preserve" text-anchor="middle" x="518.62" y="-14.2" font-family="Times,serif" font-size="14.00">f</text>
<polyline fill="none" stroke="black" points="529.25,-1.25 529.25,-36.5"/>
<text xml:space="preserve" text-anchor="middle" x="580" y="-14.2" font-family="Times,serif" font-size="14.00">data: &#45;2.000</text>
</g>
<!-- 139861644550440&#45;&gt;139861644550530 -->
<g id="edge9" class="edge">
<title>139861644550440&#45;&gt;139861644550530</title>
<path fill="none" stroke="black" d="M631.2,-31.92C639.91,-33.84 648.62,-35.76 656.64,-37.53"/>
<polygon fill="black" stroke="black" points="655.82,-40.94 666.34,-39.67 657.33,-34.1 655.82,-40.94"/>
</g>
</g>
</svg>
