<?xml version="1.0" encoding="UTF-8" standalone="no"?>
<!DOCTYPE svg PUBLIC "-//W3C//DTD SVG 1.1//EN"
 "http://www.w3.org/Graphics/SVG/1.1/DTD/svg11.dtd">
<!-- Generated by graphviz version 14.1.4 (0)
 -->
<!-- Pages: 1 -->
<svg width="638pt" height="128pt"
 viewBox="0.00 0.00 638.00 128.00" xmlns="http://www.w3.org/2000/svg" xmlns:xlink="http://www.w3.org/1999/xlink">
<g id="graph0" class="graph" transform="scale(1 1) rotate(0) translate(4 124)">
<polygon fill="white" stroke="none" points="-4,4 -4,-124 634,-124 634,4 -4,4"/>
<!-- 140691226222696 -->
<g id="node1" class="node">
<title>140691226222696</title>
<polygon fill="none" stroke="black" points="0,-83.5 0,-119.5 126.5,-119.5 126.5,-83.5 0,-83.5"/>
<text xml:space="preserve" text-anchor="middle" x="12.5" y="-97.2" font-family="Times,serif" font-size="14.00">b</text>
<polyline fill="none" stroke="black" points="25,-84.25 25,-119.5"/>
<text xml:space="preserve" text-anchor="middle" x="75.75" y="-97.2" font-family="Times,serif" font-size="14.00">data: &#45;3.000</text>
</g>
<!-- 140691226222834 -->
<g id="node6" class="node">
<title>140691226222834</title>
<ellipse fill="none" stroke="black" cx="189.5" cy="-73.5" rx="27" ry="18"/>
<text xml:space="preserve" text-anchor="middle" x="189.5" y="-68.83" font-family="Times,serif" font-size="14.00">*</text>
</g>
<!-- 140691226222696&#45;&gt;140691226222834 -->
<g id="edge5" class="edge">
<title>140691226222696&#45;&gt;140691226222834</title>
<path fill="none" stroke="black" d="M126.74,-87.42C135.51,-85.44 144.27,-83.47 152.32,-81.65"/>
<polygon fill="black" stroke="black" points="153.07,-85.07 162.05,-79.46 151.53,-78.24 153.07,-85.07"/>
</g>
<!-- 140691226222744 -->
<g id="node2" class="node">
<title>140691226222744</title>
<polygon fill="none" stroke="black" points="252.5,-0.5 252.5,-36.5 382,-36.5 382,-0.5 252.5,-0.5"/>
<text xml:space="preserve" text-anchor="middle" x="264.25" y="-14.2" font-family="Times,serif" font-size="14.00">c</text>
<polyline fill="none" stroke="black" points="276,-1.25 276,-36.5"/>
<text xml:space="preserve" text-anchor="middle" x="329" y="-14.2" font-family="Times,serif" font-size="14.00">data: 10.000</text>
</g>
<!-- 140691226222883 -->
<g id="node4" class="node">
<title>140691226222883</title>
<ellipse fill="none" stroke="black" cx="445" cy="-45.5" rx="27" ry="18"/>
<text xml:space="preserve" text-anchor="middle" x="445" y="-40.83" font-family="Times,serif" font-size="14.00">+</text>
</g>
<!-- 140691226222744&#45;&gt;140691226222883 -->
<g id="edge6" class="edge">
<title>140691226222744&#45;&gt;140691226222883</title>
<path fill="none" stroke="black" d="M382.23,-32.24C390.95,-34.11 399.65,-35.98 407.64,-37.69"/>
<polygon fill="black" stroke="black" points="406.79,-41.09 417.3,-39.77 408.26,-34.25 406.79,-41.09"/>
</g>
<!-- 140691226222840 -->
<g id="node3" class="node">
<title>140691226222840</title>
<polygon fill="none" stroke="black" points="508,-27.5 508,-63.5 630,-63.5 630,-27.5 508,-27.5"/>
<text xml:space="preserve" text-anchor="middle" x="520.5" y="-41.2" font-family="Times,serif" font-size="14.00">d</text>
<polyline fill="none" stroke="black" points="533,-28.25 533,-63.5"/>
<text xml:space="preserve" text-anchor="middle" x="581.5" y="-41.2" font-family="Times,serif" font-size="14.00">data: 4.000</text>
</g>
<!-- 140691226222883&#45;&gt;140691226222840 -->
<g id="edge1" class="edge">
<title>140691226222883&#45;&gt;140691226222840</title>
<path fill="none" stroke="black" d="M472.47,-45.5C479.6,-45.5 487.67,-45.5 496.03,-45.5"/>
<polygon fill="black" stroke="black" points="496.02,-49 506.02,-45.5 496.02,-42 496.02,-49"/>
</g>
<!-- 140691226222792 -->
<g id="node5" class="node">
<title>140691226222792</title>
<polygon fill="none" stroke="black" points="254.38,-55.5 254.38,-91.5 380.12,-91.5 380.12,-55.5 254.38,-55.5"/>
<text xml:space="preserve" text-anchor="middle" x="266.5" y="-69.2" font-family="Times,serif" font-size="14.00">e</text>
<polyline fill="none" stroke="black" points="278.62,-56.25 278.62,-91.5"/>
<text xml:space="preserve" text-anchor="middle" x="329.38" y="-69.2" font-family="Times,serif" font-size="14.00">data: &#45;6.000</text>
</g>
<!-- 140691226222792&#45;&gt;140691226222883 -->
<g id="edge3" class="edge">
<title>140691226222792&#45;&gt;140691226222883</title>
<path fill="none" stroke="black" d="M380.39,-59.66C389.75,-57.58 399.13,-55.49 407.7,-53.58"/>
<polygon fill="black" stroke="black" points="408.33,-57.03 417.34,-51.44 406.81,-50.19 408.33,-57.03"/>
</g>
<!-- 140691226222834&#45;&gt;140691226222792 -->
<g id="edge2" class="edge">
<title>140691226222834&#45;&gt;140691226222792</title>
<path fill="none" stroke="black" d="M216.86,-73.5C224.59,-73.5 233.45,-73.5 242.62,-73.5"/>
<polygon fill="black" stroke="black" points="242.4,-77 252.4,-73.5 242.4,-70 242.4,-77"/>
</g>
<!-- 140691226222648 -->
<g id="node7" class="node">
<title>140691226222648</title>
<polygon fill="none" stroke="black" points="2.62,-28.5 2.62,-64.5 123.88,-64.5 123.88,-28.5 2.62,-28.5"/>
<text xml:space="preserve" text-anchor="middle" x="14.75" y="-42.2" font-family="Times,serif" font-size="14.00">a</text>
<polyline fill="none" stroke="black" points="26.88,-29.25 26.88,-64.5"/>
<text xml:space="preserve" text-anchor="middle" x="75.38" y="-42.2" font-family="Times,serif" font-size="14.00">data: 2.000</text>
</g>
<!-- 140691226222648&#45;&gt;140691226222834 -->
<g id="edge4" class="edge">
<title>140691226222648&#45;&gt;140691226222834</title>
<path fill="none" stroke="black" d="M124.19,-59.53C133.86,-61.63 143.59,-63.74 152.46,-65.67"/>
<polygon fill="black" stroke="black" points="151.55,-69.05 162.06,-67.76 153.04,-62.21 151.55,-69.05"/>
</g>
</g>
</svg>
