<?xml version="1.0" encoding="UTF-8" standalone="no"?>
<!DOCTYPE svg PUBLIC "-//W3C//DTD SVG 1.1//EN"
 "http://www.w3.org/Graphics/SVG/1.1/DTD/svg11.dtd">
<!-- Generated by graphviz version 14.1.4 (0)
 -->
<!-- Pages: 1 -->
<svg width="886pt" height="45pt"
 viewBox="0.00 0.00 886.00 45.00" xmlns="http://www.w3.org/2000/svg" xmlns:xlink="http://www.w3.org/1999/xlink">
<g id="graph0" class="graph" transform="scale(1 1) rotate(0) translate(4 41)">
<polygon fill="white" stroke="none" points="-4,4 -4,-41 882.14,-41 882.14,4 -4,4"/>
<!-- 139721204994208 -->
<g id="node1" class="node">
<title>139721204994208</title>
<polygon fill="none" stroke="black" points="673.64,-0.5 673.64,-36.5 878.14,-36.5 878.14,-0.5 673.64,-0.5"/>
<text xml:space="preserve" text-anchor="middle" x="726.64" y="-14.2" font-family="Times,serif" font-size="14.00">data: 36.000</text>
<polyline fill="none" stroke="black" points="779.64,-1.25 779.64,-36.5"/>
<text xml:space="preserve" text-anchor="middle" x="828.89" y="-14.2" font-family="Times,serif" font-size="14.00">grad: 1.000</text>
</g>
<!-- 139721204994433 -->
<g id="node2" class="node">
<title>139721204994433</title>
<ellipse fill="none" stroke="black" cx="604.32" cy="-18.5" rx="33.32" ry="18"/>
<text xml:space="preserve" text-anchor="middle" x="604.32" y="-13.82" font-family="Times,serif" font-size="14.00">^(2)</text>
</g>
<!-- 139721204994433&#45;&gt;139721204994208 -->
<g id="edge1" class="edge">
<title>139721204994433&#45;&gt;139721204994208</title>
<path fill="none" stroke="black" d="M638.02,-18.5C645.31,-18.5 653.44,-18.5 662.01,-18.5"/>
<polygon fill="black" stroke="black" points="661.97,-22 671.97,-18.5 661.97,-15 661.97,-22"/>
</g>
<!-- 139721204994152 -->
<g id="node3" class="node">
<title>139721204994152</title>
<polygon fill="none" stroke="black" points="330.5,-0.5 330.5,-36.5 535,-36.5 535,-0.5 330.5,-0.5"/>
<text xml:space="preserve" text-anchor="middle" x="379" y="-14.2" font-family="Times,serif" font-size="14.00">data: 6.000</text>
<polyline fill="none" stroke="black" points="427.5,-1.25 427.5,-36.5"/>
<text xml:space="preserve" text-anchor="middle" x="481.25" y="-14.2" font-family="Times,serif" font-size="14.00">grad: 12.000</text>
</g>
<!-- 139721204994152&#45;&gt;139721204994433 -->
<g id="edge3" class="edge">
<title>139721204994152&#45;&gt;139721204994433</title>
<path fill="none" stroke="black" d="M535.33,-18.5C543.66,-18.5 551.77,-18.5 559.31,-18.5"/>
<polygon fill="black" stroke="black" points="559.13,-22 569.13,-18.5 559.13,-15 559.13,-22"/>
</g>
<!-- 139721204994195 -->
<g id="node4" class="node">
<title>139721204994195</title>
<ellipse fill="none" stroke="black" cx="267.5" cy="-18.5" rx="27" ry="18"/>
<text xml:space="preserve" text-anchor="middle" x="267.5" y="-13.82" font-family="Times,serif" font-size="14.00">+</text>
</g>
<!-- 139721204994195&#45;&gt;139721204994152 -->
<g id="edge2" class="edge">
<title>139721204994195&#45;&gt;139721204994152</title>
<path fill="none" stroke="black" d="M294.73,-18.5C301.83,-18.5 309.98,-18.5 318.7,-18.5"/>
<polygon fill="black" stroke="black" points="318.5,-22 328.5,-18.5 318.5,-15 318.5,-22"/>
</g>
<!-- 139721204994104 -->
<g id="node5" class="node">
<title>139721204994104</title>
<polygon fill="none" stroke="black" points="0,-0.5 0,-36.5 204.5,-36.5 204.5,-0.5 0,-0.5"/>
<text xml:space="preserve" text-anchor="middle" x="48.5" y="-14.2" font-family="Times,serif" font-size="14.00">data: 3.000</text>
<polyline fill="none" stroke="black" points="97,-1.25 97,-36.5"/>
<text xml:space="preserve" text-anchor="middle" x="150.75" y="-14.2" font-family="Times,serif" font-size="14.00">grad: 24.000</text>
</g>
<!-- 139721204994104&#45;&gt;139721204994195 -->
<g id="edge4" class="edge">
<title>139721204994104&#45;&gt;139721204994195</title>
<path fill="none" stroke="black" d="M204.78,-11.93C213.63,-12.1 222.15,-12.37 229.88,-12.76"/>
<polygon fill="black" stroke="black" points="229.62,-16.25 239.82,-13.37 230.05,-9.26 229.62,-16.25"/>
</g>
<!-- 139721204994104&#45;&gt;139721204994195 -->
<g id="edge5" class="edge">
<title>139721204994104&#45;&gt;139721204994195</title>
<path fill="none" stroke="black" d="M204.78,-25.07C213.63,-24.9 222.15,-24.63 229.88,-24.24"/>
<polygon fill="black" stroke="black" points="230.05,-27.74 239.82,-23.63 229.62,-20.75 230.05,-27.74"/>
</g>
</g>
</svg>
