<?xml version="1.0" encoding="UTF-8" standalone="no"?>
<!DOCTYPE svg PUBLIC "-//W3C//DTD SVG 1.1//EN"
 "http://www.w3.org/Graphics/SVG/1.1/DTD/svg11.dtd">
<!-- Generated by graphviz version 14.1.4 (0)
 -->
<!-- Pages: 1 -->
<svg width="1199pt" height="127pt"
 viewBox="0.00 0.00 1199.00 127.00" xmlns="http://www.w3.org/2000/svg" xmlns:xlink="http://www.w3.org/1999/xlink">
<g id="graph0" class="graph" transform="scale(1 1) rotate(0) translate(4 123)">
<polygon fill="white" stroke="none" points="-4,4 -4,-123 1194.64,-123 1194.64,4 -4,4"/>
<!-- 140672429236528 -->
<g id="node1" class="node">
<title>140672429236528</title>
<polygon fill="none" stroke="black" points="986.14,-54.5 986.14,-90.5 1190.64,-90.5 1190.64,-54.5 986.14,-54.5"/>
<text xml:space="preserve" text-anchor="middle" x="1039.14" y="-68.2" font-family="Times,serif" font-size="14.00">data: 50.000</text>
<polyline fill="none" stroke="black" points="1092.14,-55.25 1092.14,-90.5"/>
<text xml:space="preserve" text-anchor="middle" x="1141.39" y="-68.2" font-family="Times,serif" font-size="14.00">grad: 0.000</text>
</g>
<!-- 140672429236570 -->
<g id="node2" class="node">
<title>140672429236570</title>
<ellipse fill="none" stroke="black" cx="923.14" cy="-72.5" rx="27" ry="18"/>
<text xml:space="preserve" text-anchor="middle" x="923.14" y="-67.83" font-family="Times,serif" font-size="14.00">*</text>
</g>
<!-- 140672429236570&#45;&gt;140672429236528 -->
<g id="edge1" class="edge">
<title>140672429236570&#45;&gt;140672429236528</title>
<path fill="none" stroke="black" d="M950.37,-72.5C957.47,-72.5 965.62,-72.5 974.34,-72.5"/>
<polygon fill="black" stroke="black" points="974.14,-76 984.14,-72.5 974.14,-69 974.14,-76"/>
</g>
<!-- 140672429236480 -->
<g id="node3" class="node">
<title>140672429236480</title>
<polygon fill="none" stroke="black" points="660.14,-82.5 660.14,-118.5 855.64,-118.5 855.64,-82.5 660.14,-82.5"/>
<text xml:space="preserve" text-anchor="middle" x="708.64" y="-96.2" font-family="Times,serif" font-size="14.00">data: 2.000</text>
<polyline fill="none" stroke="black" points="757.14,-83.25 757.14,-118.5"/>
<text xml:space="preserve" text-anchor="middle" x="806.39" y="-96.2" font-family="Times,serif" font-size="14.00">grad: 0.000</text>
</g>
<!-- 140672429236480&#45;&gt;140672429236570 -->
<g id="edge8" class="edge">
<title>140672429236480&#45;&gt;140672429236570</title>
<path fill="none" stroke="black" d="M855.74,-83.89C866.24,-82.09 876.4,-80.35 885.47,-78.79"/>
<polygon fill="black" stroke="black" points="885.97,-82.26 895.23,-77.12 884.78,-75.36 885.97,-82.26"/>
</g>
<!-- 140672429236432 -->
<g id="node4" class="node">
<title>140672429236432</title>
<polygon fill="none" stroke="black" points="655.64,-27.5 655.64,-63.5 860.14,-63.5 860.14,-27.5 655.64,-27.5"/>
<text xml:space="preserve" text-anchor="middle" x="708.64" y="-41.2" font-family="Times,serif" font-size="14.00">data: 25.000</text>
<polyline fill="none" stroke="black" points="761.64,-28.25 761.64,-63.5"/>
<text xml:space="preserve" text-anchor="middle" x="810.89" y="-41.2" font-family="Times,serif" font-size="14.00">grad: 0.000</text>
</g>
<!-- 140672429236432&#45;&gt;140672429236570 -->
<g id="edge4" class="edge">
<title>140672429236432&#45;&gt;140672429236570</title>
<path fill="none" stroke="black" d="M860.42,-62.29C869.29,-63.76 877.83,-65.17 885.58,-66.45"/>
<polygon fill="black" stroke="black" points="884.74,-69.86 895.18,-68.04 885.88,-62.96 884.74,-69.86"/>
</g>
<!-- 140672429236657 -->
<g id="node5" class="node">
<title>140672429236657</title>
<ellipse fill="none" stroke="black" cx="586.32" cy="-45.5" rx="33.32" ry="18"/>
<text xml:space="preserve" text-anchor="middle" x="586.32" y="-40.83" font-family="Times,serif" font-size="14.00">^(2)</text>
</g>
<!-- 140672429236657&#45;&gt;140672429236432 -->
<g id="edge2" class="edge">
<title>140672429236657&#45;&gt;140672429236432</title>
<path fill="none" stroke="black" d="M620.02,-45.5C627.31,-45.5 635.44,-45.5 644.01,-45.5"/>
<polygon fill="black" stroke="black" points="643.97,-49 653.97,-45.5 643.97,-42 643.97,-49"/>
</g>
<!-- 140672429236376 -->
<g id="node6" class="node">
<title>140672429236376</title>
<polygon fill="none" stroke="black" points="321.5,-27.5 321.5,-63.5 517,-63.5 517,-27.5 321.5,-27.5"/>
<text xml:space="preserve" text-anchor="middle" x="370" y="-41.2" font-family="Times,serif" font-size="14.00">data: 5.000</text>
<polyline fill="none" stroke="black" points="418.5,-28.25 418.5,-63.5"/>
<text xml:space="preserve" text-anchor="middle" x="467.75" y="-41.2" font-family="Times,serif" font-size="14.00">grad: 0.000</text>
</g>
<!-- 140672429236376&#45;&gt;140672429236657 -->
<g id="edge5" class="edge">
<title>140672429236376&#45;&gt;140672429236657</title>
<path fill="none" stroke="black" d="M517.23,-45.5C525.61,-45.5 533.79,-45.5 541.4,-45.5"/>
<polygon fill="black" stroke="black" points="541.33,-49 551.33,-45.5 541.33,-42 541.33,-49"/>
</g>
<!-- 140672429236419 -->
<g id="node7" class="node">
<title>140672429236419</title>
<ellipse fill="none" stroke="black" cx="258.5" cy="-45.5" rx="27" ry="18"/>
<text xml:space="preserve" text-anchor="middle" x="258.5" y="-40.83" font-family="Times,serif" font-size="14.00">+</text>
</g>
<!-- 140672429236419&#45;&gt;140672429236376 -->
<g id="edge3" class="edge">
<title>140672429236419&#45;&gt;140672429236376</title>
<path fill="none" stroke="black" d="M285.71,-45.5C292.84,-45.5 301.01,-45.5 309.74,-45.5"/>
<polygon fill="black" stroke="black" points="309.52,-49 319.52,-45.5 309.52,-42 309.52,-49"/>
</g>
<!-- 140672429236280 -->
<g id="node8" class="node">
<title>140672429236280</title>
<polygon fill="none" stroke="black" points="0,-55.5 0,-91.5 195.5,-91.5 195.5,-55.5 0,-55.5"/>
<text xml:space="preserve" text-anchor="middle" x="48.5" y="-69.2" font-family="Times,serif" font-size="14.00">data: 3.000</text>
<polyline fill="none" stroke="black" points="97,-56.25 97,-91.5"/>
<text xml:space="preserve" text-anchor="middle" x="146.25" y="-69.2" font-family="Times,serif" font-size="14.00">grad: 0.000</text>
</g>
<!-- 140672429236280&#45;&gt;140672429236419 -->
<g id="edge6" class="edge">
<title>140672429236280&#45;&gt;140672429236419</title>
<path fill="none" stroke="black" d="M195.67,-56.41C204.5,-54.85 213.03,-53.34 220.78,-51.98"/>
<polygon fill="black" stroke="black" points="221.16,-55.46 230.4,-50.28 219.95,-48.57 221.16,-55.46"/>
</g>
<!-- 140672429236328 -->
<g id="node9" class="node">
<title>140672429236328</title>
<polygon fill="none" stroke="black" points="0,-0.5 0,-36.5 195.5,-36.5 195.5,-0.5 0,-0.5"/>
<text xml:space="preserve" text-anchor="middle" x="48.5" y="-14.2" font-family="Times,serif" font-size="14.00">data: 2.000</text>
<polyline fill="none" stroke="black" points="97,-1.25 97,-36.5"/>
<text xml:space="preserve" text-anchor="middle" x="146.25" y="-14.2" font-family="Times,serif" font-size="14.00">grad: 0.000</text>
</g>
<!-- 140672429236328&#45;&gt;140672429236419 -->
<g id="edge7" class="edge">
<title>140672429236328&#45;&gt;140672429236419</title>
<path fill="none" stroke="black" d="M195.67,-34.98C204.5,-36.49 213.03,-37.94 220.78,-39.25"/>
<polygon fill="black" stroke="black" points="219.95,-42.66 230.4,-40.89 221.13,-35.76 219.95,-42.66"/>
</g>
</g>
</svg>
