<?xml version="1.0" encoding="UTF-8" standalone="no"?>
<!DOCTYPE svg PUBLIC "-//W3C//DTD SVG 1.1//EN"
 "http://www.w3.org/Graphics/SVG/1.1/DTD/svg11.dtd">
<!-- Generated by graphviz version 14.1.4 (0)
 -->
<!-- Pages: 1 -->
<svg width="1217pt" height="128pt"
 viewBox="0.00 0.00 1217.00 128.00" xmlns="http://www.w3.org/2000/svg" xmlns:xlink="http://www.w3.org/1999/xlink">
<g id="graph0" class="graph" transform="scale(1 1) rotate(0) translate(4 124)">
<polygon fill="white" stroke="none" points="-4,4 -4,-124 1212.64,-124 1212.64,4 -4,4"/>
<!-- 139895422050360 -->
<g id="node1" class="node">
<title>139895422050360</title>
<polygon fill="none" stroke="black" points="0,-83.5 0,-119.5 204.5,-119.5 204.5,-83.5 0,-83.5"/>
<text xml:space="preserve" text-anchor="middle" x="48.5" y="-97.2" font-family="Times,serif" font-size="14.00">data: 3.000</text>
<polyline fill="none" stroke="black" points="97,-84.25 97,-119.5"/>
<text xml:space="preserve" text-anchor="middle" x="150.75" y="-97.2" font-family="Times,serif" font-size="14.00">grad: 20.000</text>
</g>
<!-- 139895422050499 -->
<g id="node9" class="node">
<title>139895422050499</title>
<ellipse fill="none" stroke="black" cx="267.5" cy="-73.5" rx="27" ry="18"/>
<text xml:space="preserve" text-anchor="middle" x="267.5" y="-68.83" font-family="Times,serif" font-size="14.00">+</text>
</g>
<!-- 139895422050360&#45;&gt;139895422050499 -->
<g id="edge6" class="edge">
<title>139895422050360&#45;&gt;139895422050499</title>
<path fill="none" stroke="black" d="M204.78,-84.09C213.65,-82.56 222.19,-81.1 229.94,-79.77"/>
<polygon fill="black" stroke="black" points="230.27,-83.26 239.54,-78.12 229.09,-76.37 230.27,-83.26"/>
</g>
<!-- 139895422050408 -->
<g id="node2" class="node">
<title>139895422050408</title>
<polygon fill="none" stroke="black" points="0,-28.5 0,-64.5 204.5,-64.5 204.5,-28.5 0,-28.5"/>
<text xml:space="preserve" text-anchor="middle" x="48.5" y="-42.2" font-family="Times,serif" font-size="14.00">data: 2.000</text>
<polyline fill="none" stroke="black" points="97,-29.25 97,-64.5"/>
<text xml:space="preserve" text-anchor="middle" x="150.75" y="-42.2" font-family="Times,serif" font-size="14.00">grad: 20.000</text>
</g>
<!-- 139895422050408&#45;&gt;139895422050499 -->
<g id="edge7" class="edge">
<title>139895422050408&#45;&gt;139895422050499</title>
<path fill="none" stroke="black" d="M204.78,-63.29C213.65,-64.76 222.19,-66.17 229.94,-67.45"/>
<polygon fill="black" stroke="black" points="229.1,-70.86 239.54,-69.04 230.24,-63.96 229.1,-70.86"/>
</g>
<!-- 139895422050608 -->
<g id="node3" class="node">
<title>139895422050608</title>
<polygon fill="none" stroke="black" points="1004.14,-27.5 1004.14,-63.5 1208.64,-63.5 1208.64,-27.5 1004.14,-27.5"/>
<text xml:space="preserve" text-anchor="middle" x="1057.14" y="-41.2" font-family="Times,serif" font-size="14.00">data: 50.000</text>
<polyline fill="none" stroke="black" points="1110.14,-28.25 1110.14,-63.5"/>
<text xml:space="preserve" text-anchor="middle" x="1159.39" y="-41.2" font-family="Times,serif" font-size="14.00">grad: 1.000</text>
</g>
<!-- 139895422050650 -->
<g id="node4" class="node">
<title>139895422050650</title>
<ellipse fill="none" stroke="black" cx="941.14" cy="-45.5" rx="27" ry="18"/>
<text xml:space="preserve" text-anchor="middle" x="941.14" y="-40.83" font-family="Times,serif" font-size="14.00">*</text>
</g>
<!-- 139895422050650&#45;&gt;139895422050608 -->
<g id="edge1" class="edge">
<title>139895422050650&#45;&gt;139895422050608</title>
<path fill="none" stroke="black" d="M968.37,-45.5C975.47,-45.5 983.62,-45.5 992.34,-45.5"/>
<polygon fill="black" stroke="black" points="992.14,-49 1002.14,-45.5 992.14,-42 992.14,-49"/>
</g>
<!-- 139895422050560 -->
<g id="node5" class="node">
<title>139895422050560</title>
<polygon fill="none" stroke="black" points="673.64,-0.5 673.64,-36.5 878.14,-36.5 878.14,-0.5 673.64,-0.5"/>
<text xml:space="preserve" text-anchor="middle" x="722.14" y="-14.2" font-family="Times,serif" font-size="14.00">data: 2.000</text>
<polyline fill="none" stroke="black" points="770.64,-1.25 770.64,-36.5"/>
<text xml:space="preserve" text-anchor="middle" x="824.39" y="-14.2" font-family="Times,serif" font-size="14.00">grad: 25.000</text>
</g>
<!-- 139895422050560&#45;&gt;139895422050650 -->
<g id="edge8" class="edge">
<title>139895422050560&#45;&gt;139895422050650</title>
<path fill="none" stroke="black" d="M878.42,-35.29C887.29,-36.76 895.83,-38.17 903.58,-39.45"/>
<polygon fill="black" stroke="black" points="902.74,-42.86 913.18,-41.04 903.88,-35.96 902.74,-42.86"/>
</g>
<!-- 139895422050512 -->
<g id="node6" class="node">
<title>139895422050512</title>
<polygon fill="none" stroke="black" points="673.64,-55.5 673.64,-91.5 878.14,-91.5 878.14,-55.5 673.64,-55.5"/>
<text xml:space="preserve" text-anchor="middle" x="726.64" y="-69.2" font-family="Times,serif" font-size="14.00">data: 25.000</text>
<polyline fill="none" stroke="black" points="779.64,-56.25 779.64,-91.5"/>
<text xml:space="preserve" text-anchor="middle" x="828.89" y="-69.2" font-family="Times,serif" font-size="14.00">grad: 2.000</text>
</g>
<!-- 139895422050512&#45;&gt;139895422050650 -->
<g id="edge4" class="edge">
<title>139895422050512&#45;&gt;139895422050650</title>
<path fill="none" stroke="black" d="M878.42,-56.09C887.29,-54.56 895.83,-53.1 903.58,-51.77"/>
<polygon fill="black" stroke="black" points="903.91,-55.26 913.18,-50.12 902.73,-48.37 903.91,-55.26"/>
</g>
<!-- 139895422050737 -->
<g id="node7" class="node">
<title>139895422050737</title>
<ellipse fill="none" stroke="black" cx="604.32" cy="-73.5" rx="33.32" ry="18"/>
<text xml:space="preserve" text-anchor="middle" x="604.32" y="-68.83" font-family="Times,serif" font-size="14.00">^(2)</text>
</g>
<!-- 139895422050737&#45;&gt;139895422050512 -->
<g id="edge2" class="edge">
<title>139895422050737&#45;&gt;139895422050512</title>
<path fill="none" stroke="black" d="M638.02,-73.5C645.31,-73.5 653.44,-73.5 662.01,-73.5"/>
<polygon fill="black" stroke="black" points="661.97,-77 671.97,-73.5 661.97,-70 661.97,-77"/>
</g>
<!-- 139895422050456 -->
<g id="node8" class="node">
<title>139895422050456</title>
<polygon fill="none" stroke="black" points="330.5,-55.5 330.5,-91.5 535,-91.5 535,-55.5 330.5,-55.5"/>
<text xml:space="preserve" text-anchor="middle" x="379" y="-69.2" font-family="Times,serif" font-size="14.00">data: 5.000</text>
<polyline fill="none" stroke="black" points="427.5,-56.25 427.5,-91.5"/>
<text xml:space="preserve" text-anchor="middle" x="481.25" y="-69.2" font-family="Times,serif" font-size="14.00">grad: 20.000</text>
</g>
<!-- 139895422050456&#45;&gt;139895422050737 -->
<g id="edge5" class="edge">
<title>139895422050456&#45;&gt;139895422050737</title>
<path fill="none" stroke="black" d="M535.33,-73.5C543.66,-73.5 551.77,-73.5 559.31,-73.5"/>
<polygon fill="black" stroke="black" points="559.13,-77 569.13,-73.5 559.13,-70 559.13,-77"/>
</g>
<!-- 139895422050499&#45;&gt;139895422050456 -->
<g id="edge3" class="edge">
<title>139895422050499&#45;&gt;139895422050456</title>
<path fill="none" stroke="black" d="M294.73,-73.5C301.83,-73.5 309.98,-73.5 318.7,-73.5"/>
<polygon fill="black" stroke="black" points="318.5,-77 328.5,-73.5 318.5,-70 318.5,-77"/>
</g>
</g>
</svg>
